<svg width="20" height="28" viewBox="0 0 20 28" fill="none" xmlns="http://www.w3.org/2000/svg">
<path d="M5.41797 15.5742C5.79036 16.5625 6.22721 17.3503 6.72852 17.9375C7.60221 18.9616 8.68717 19.4736 9.9834 19.4736C10.6852 19.4736 11.2904 19.2516 11.7988 18.8076C12.3145 18.3636 12.5723 17.7441 12.5723 16.9492C12.5723 16.2331 12.3145 15.61 11.7988 15.0801C11.4622 14.7435 10.7533 14.2386 9.67188 13.5654L7.79199 12.3945C7.22624 12.0365 6.77507 11.6748 6.43848 11.3096C5.81543 10.6149 5.50391 9.84863 5.50391 9.01074C5.50391 7.90072 5.87272 6.97689 6.61035 6.23926C7.34798 5.50163 8.32552 5.13281 9.54297 5.13281C10.0443 5.13281 10.6458 5.25814 11.3477 5.50879C12.0566 5.75228 12.4613 5.87402 12.5615 5.87402C12.8337 5.87402 13.0199 5.80957 13.1201 5.68066C13.2275 5.55176 13.3099 5.36914 13.3672 5.13281H13.8184L14.3018 9.81641H13.7754C13.4173 8.4056 12.8408 7.4209 12.0459 6.8623C11.2581 6.30371 10.4775 6.02441 9.7041 6.02441C9.10254 6.02441 8.57617 6.20345 8.125 6.56152C7.68099 6.91243 7.45898 7.40299 7.45898 8.0332C7.45898 8.59896 7.63086 9.08236 7.97461 9.4834C8.31836 9.8916 8.85189 10.3177 9.5752 10.7617L11.5088 11.9541C12.7191 12.6989 13.5713 13.3828 14.0654 14.0059C14.5524 14.6361 14.7959 15.3809 14.7959 16.2402C14.7959 17.3932 14.359 18.3564 13.4854 19.1299C12.6188 19.9033 11.5088 20.29 10.1553 20.29C9.47493 20.29 8.76237 20.1611 8.01758 19.9033C7.27995 19.6455 6.85742 19.5166 6.75 19.5166C6.49219 19.5166 6.31673 19.5954 6.22363 19.7529C6.1377 19.9105 6.0804 20.0788 6.05176 20.2578H5.56836L4.91309 15.5742H5.41797Z" fill="#3A3A3A"/>
</svg>
